# Created by FreeCAD <http://www.freecadweb.org>
v 84.676552 7.408238 0.000000 204 204 204
v 85.000000 -0.000000 0.000000 204 204 204
v 85.000000 -0.000000 -30.000000 204 204 204
v 84.676552 7.408238 -30.000000 204 204 204
v 83.708656 14.760095 0.000000 204 204 204
v 83.708656 14.760095 -30.000000 204 204 204
v 82.103699 21.999619 0.000000 204 204 204
v 82.103699 21.999619 -30.000000 204 204 204
v 79.873871 29.071712 0.000000 204 204 204
v 79.873871 29.071712 -30.000000 204 204 204
v 77.036163 35.922554 0.000000 204 204 204
v 77.036163 35.922554 -30.000000 204 204 204
v 73.612160 42.500000 -30.000000 204 204 204
v 73.612160 42.500000 0.000000 204 204 204
v 69.627922 48.753998 0.000000 204 204 204
v 69.627922 48.753998 -30.000000 204 204 204
v 65.113777 54.636948 -30.000000 204 204 204
v 65.113777 54.636948 0.000000 204 204 204
v 60.104076 60.104076 0.000000 204 204 204
v 60.104076 60.104076 -30.000000 204 204 204
v 54.636948 65.113777 0.000000 204 204 204
v 54.636948 65.113777 -30.000000 204 204 204
v 48.753998 69.627922 -30.000000 204 204 204
v 48.753998 69.627922 0.000000 204 204 204
v 42.500000 73.612160 0.000000 204 204 204
v 42.500000 73.612160 -30.000000 204 204 204
v 35.922554 77.036163 0.000000 204 204 204
v 35.922554 77.036163 -30.000000 204 204 204
v 29.071712 79.873871 0.000000 204 204 204
v 29.071712 79.873871 -30.000000 204 204 204
v 21.999619 82.103699 -30.000000 204 204 204
v 21.999619 82.103699 0.000000 204 204 204
v 14.760095 83.708656 0.000000 204 204 204
v 14.760095 83.708656 -30.000000 204 204 204
v 7.408238 84.676552 0.000000 204 204 204
v 7.408238 84.676552 -30.000000 204 204 204
v 0.000000 85.000000 0.000000 204 204 204
v 0.000000 85.000000 -30.000000 204 204 204
v -7.408238 84.676552 0.000000 204 204 204
v -7.408238 84.676552 -30.000000 204 204 204
v -14.760095 83.708656 -30.000000 204 204 204
v -14.760095 83.708656 0.000000 204 204 204
v -21.999619 82.103699 0.000000 204 204 204
v -21.999619 82.103699 -30.000000 204 204 204
v -29.071712 79.873871 0.000000 204 204 204
v -29.071712 79.873871 -30.000000 204 204 204
v -35.922554 77.036163 -30.000000 204 204 204
v -35.922554 77.036163 0.000000 204 204 204
v -42.500000 73.612160 0.000000 204 204 204
v -42.500000 73.612160 -30.000000 204 204 204
v -48.753998 69.627922 0.000000 204 204 204
v -48.753998 69.627922 -30.000000 204 204 204
v -54.636948 65.113777 -30.000000 204 204 204
v -54.636948 65.113777 0.000000 204 204 204
v -60.104076 60.104076 0.000000 204 204 204
v -60.104076 60.104076 -30.000000 204 204 204
v -65.113777 54.636948 -30.000000 204 204 204
v -65.113777 54.636948 0.000000 204 204 204
v -69.627922 48.753998 0.000000 204 204 204
v -69.627922 48.753998 -30.000000 204 204 204
v -73.612160 42.500000 0.000000 204 204 204
v -73.612160 42.500000 -30.000000 204 204 204
v -77.036163 35.922554 0.000000 204 204 204
v -77.036163 35.922554 -30.000000 204 204 204
v -79.873871 29.071712 0.000000 204 204 204
v -79.873871 29.071712 -30.000000 204 204 204
v -82.103699 21.999619 0.000000 204 204 204
v -82.103699 21.999619 -30.000000 204 204 204
v -83.708656 14.760095 0.000000 204 204 204
v -83.708656 14.760095 -30.000000 204 204 204
v -84.676552 7.408238 0.000000 204 204 204
v -84.676552 7.408238 -30.000000 204 204 204
v -85.000000 0.000000 -30.000000 204 204 204
v -85.000000 0.000000 0.000000 204 204 204
v -84.676552 -7.408238 0.000000 204 204 204
v -84.676552 -7.408238 -30.000000 204 204 204
v -83.708656 -14.760095 0.000000 204 204 204
v -83.708656 -14.760095 -30.000000 204 204 204
v -82.103699 -21.999619 0.000000 204 204 204
v -82.103699 -21.999619 -30.000000 204 204 204
v -79.873871 -29.071712 0.000000 204 204 204
v -79.873871 -29.071712 -30.000000 204 204 204
v -77.036163 -35.922554 0.000000 204 204 204
v -77.036163 -35.922554 -30.000000 204 204 204
v -73.612160 -42.500000 0.000000 204 204 204
v -73.612160 -42.500000 -30.000000 204 204 204
v -69.627922 -48.753998 0.000000 204 204 204
v -69.627922 -48.753998 -30.000000 204 204 204
v -65.113777 -54.636948 -30.000000 204 204 204
v -65.113777 -54.636948 0.000000 204 204 204
v -60.104076 -60.104076 0.000000 204 204 204
v -60.104076 -60.104076 -30.000000 204 204 204
v -54.636948 -65.113777 0.000000 204 204 204
v -54.636948 -65.113777 -30.000000 204 204 204
v -48.753998 -69.627922 0.000000 204 204 204
v -48.753998 -69.627922 -30.000000 204 204 204
v -42.500000 -73.612160 -30.000000 204 204 204
v -42.500000 -73.612160 0.000000 204 204 204
v -35.922554 -77.036163 0.000000 204 204 204
v -35.922554 -77.036163 -30.000000 204 204 204
v -29.071712 -79.873871 0.000000 204 204 204
v -29.071712 -79.873871 -30.000000 204 204 204
v -21.999619 -82.103699 0.000000 204 204 204
v -21.999619 -82.103699 -30.000000 204 204 204
v -14.760095 -83.708656 0.000000 204 204 204
v -14.760095 -83.708656 -30.000000 204 204 204
v -7.408238 -84.676552 0.000000 204 204 204
v -7.408238 -84.676552 -30.000000 204 204 204
v -0.000000 -85.000000 -30.000000 204 204 204
v -0.000000 -85.000000 0.000000 204 204 204
v 7.408238 -84.676552 0.000000 204 204 204
v 7.408238 -84.676552 -30.000000 204 204 204
v 14.760095 -83.708656 0.000000 204 204 204
v 14.760095 -83.708656 -30.000000 204 204 204
v 21.999619 -82.103699 0.000000 204 204 204
v 21.999619 -82.103699 -30.000000 204 204 204
v 29.071712 -79.873871 0.000000 204 204 204
v 29.071712 -79.873871 -30.000000 204 204 204
v 35.922554 -77.036163 0.000000 204 204 204
v 35.922554 -77.036163 -30.000000 204 204 204
v 42.500000 -73.612160 0.000000 204 204 204
v 42.500000 -73.612160 -30.000000 204 204 204
v 48.753998 -69.627922 0.000000 204 204 204
v 48.753998 -69.627922 -30.000000 204 204 204
v 54.636948 -65.113777 0.000000 204 204 204
v 54.636948 -65.113777 -30.000000 204 204 204
v 60.104076 -60.104076 0.000000 204 204 204
v 60.104076 -60.104076 -30.000000 204 204 204
v 65.113777 -54.636948 0.000000 204 204 204
v 65.113777 -54.636948 -30.000000 204 204 204
v 69.627922 -48.753998 0.000000 204 204 204
v 69.627922 -48.753998 -30.000000 204 204 204
v 73.612160 -42.500000 -30.000000 204 204 204
v 73.612160 -42.500000 0.000000 204 204 204
v 77.036163 -35.922554 0.000000 204 204 204
v 77.036163 -35.922554 -30.000000 204 204 204
v 79.873871 -29.071712 0.000000 204 204 204
v 79.873871 -29.071712 -30.000000 204 204 204
v 82.103699 -21.999619 -30.000000 204 204 204
v 82.103699 -21.999619 0.000000 204 204 204
v 83.708656 -14.760095 0.000000 204 204 204
v 83.708656 -14.760095 -30.000000 204 204 204
v 84.676552 -7.408238 0.000000 204 204 204
v 84.676552 -7.408238 -30.000000 204 204 204
vn 0.999048 0.043619 0.000000
vn 0.999048 0.043619 0.000000
vn 0.991445 0.130527 0.000000
vn 0.991445 0.130527 0.000000
vn 0.976296 0.216439 0.000000
vn 0.976296 0.216439 0.000000
vn 0.953717 0.300706 0.000000
vn 0.953717 0.300706 0.000000
vn 0.923880 0.382683 0.000000
vn 0.923880 0.382683 0.000000
vn 0.887011 0.461749 0.000000
vn 0.887011 0.461749 0.000000
vn 0.843391 0.537300 0.000000
vn 0.843391 0.537300 0.000000
vn 0.793353 0.608761 0.000000
vn 0.793353 0.608761 0.000000
vn 0.737277 0.675590 0.000000
vn 0.737277 0.675590 0.000000
vn 0.675590 0.737277 0.000000
vn 0.608761 0.793353 0.000000
vn 0.675590 0.737277 0.000000
vn 0.608761 0.793353 0.000000
vn 0.537300 0.843391 0.000000
vn 0.537300 0.843391 0.000000
vn 0.461749 0.887011 0.000000
vn 0.461749 0.887011 0.000000
vn 0.382683 0.923880 0.000000
vn 0.382683 0.923880 0.000000
vn 0.300706 0.953717 0.000000
vn 0.300706 0.953717 0.000000
vn 0.216439 0.976296 0.000000
vn 0.216439 0.976296 0.000000
vn 0.130527 0.991445 0.000000
vn 0.130527 0.991445 0.000000
vn 0.043619 0.999048 0.000000
vn 0.043619 0.999048 0.000000
vn -0.043619 0.999048 0.000000
vn -0.043619 0.999048 0.000000
vn -0.130527 0.991445 0.000000
vn -0.130527 0.991445 0.000000
vn -0.216439 0.976296 0.000000
vn -0.216439 0.976296 0.000000
vn -0.300706 0.953717 0.000000
vn -0.300706 0.953717 0.000000
vn -0.382683 0.923880 0.000000
vn -0.382683 0.923880 0.000000
vn -0.461749 0.887011 0.000000
vn -0.461749 0.887011 0.000000
vn -0.537300 0.843391 0.000000
vn -0.537300 0.843391 0.000000
vn -0.608761 0.793353 0.000000
vn -0.608761 0.793353 0.000000
vn -0.737277 0.675590 0.000000
vn -0.675590 0.737277 0.000000
vn -0.675590 0.737277 0.000000
vn -0.737277 0.675590 0.000000
vn -0.793353 0.608761 0.000000
vn -0.793353 0.608761 0.000000
vn -0.843391 0.537300 0.000000
vn -0.843391 0.537300 0.000000
vn -0.887011 0.461749 0.000000
vn -0.887011 0.461749 0.000000
vn -0.923880 0.382683 0.000000
vn -0.923880 0.382683 0.000000
vn -0.953717 0.300706 0.000000
vn -0.953717 0.300706 0.000000
vn -0.976296 0.216439 0.000000
vn -0.976296 0.216439 0.000000
vn -0.991445 0.130527 0.000000
vn -0.999048 0.043619 0.000000
vn -0.991445 0.130527 0.000000
vn -0.999048 0.043619 0.000000
vn -0.999048 -0.043619 -0.000000
vn -0.999048 -0.043619 0.000000
vn -0.991445 -0.130527 0.000000
vn -0.991445 -0.130527 -0.000000
vn -0.976296 -0.216439 0.000000
vn -0.976296 -0.216439 -0.000000
vn -0.953717 -0.300706 0.000000
vn -0.953717 -0.300706 -0.000000
vn -0.923880 -0.382683 -0.000000
vn -0.923880 -0.382683 0.000000
vn -0.887011 -0.461749 -0.000000
vn -0.887011 -0.461749 0.000000
vn -0.843391 -0.537300 -0.000000
vn -0.793353 -0.608761 -0.000000
vn -0.843391 -0.537300 0.000000
vn -0.793353 -0.608761 -0.000000
vn -0.737277 -0.675590 -0.000000
vn -0.737277 -0.675590 0.000000
vn -0.675590 -0.737277 -0.000000
vn -0.675590 -0.737277 0.000000
vn -0.608761 -0.793353 -0.000000
vn -0.537300 -0.843391 -0.000000
vn -0.608761 -0.793353 0.000000
vn -0.537300 -0.843391 -0.000000
vn -0.461749 -0.887011 -0.000000
vn -0.461749 -0.887011 0.000000
vn -0.382683 -0.923880 -0.000000
vn -0.382683 -0.923880 0.000000
vn -0.300706 -0.953717 -0.000000
vn -0.300706 -0.953717 0.000000
vn -0.216439 -0.976296 -0.000000
vn -0.216439 -0.976296 0.000000
vn -0.130527 -0.991445 -0.000000
vn -0.043619 -0.999048 -0.000000
vn -0.130527 -0.991445 0.000000
vn -0.043619 -0.999048 -0.000000
vn 0.043619 -0.999048 0.000000
vn 0.043619 -0.999048 0.000000
vn 0.130527 -0.991445 0.000000
vn 0.130527 -0.991445 0.000000
vn 0.216439 -0.976296 0.000000
vn 0.216439 -0.976296 0.000000
vn 0.300706 -0.953717 0.000000
vn 0.300706 -0.953717 0.000000
vn 0.382683 -0.923880 0.000000
vn 0.382683 -0.923880 0.000000
vn 0.461749 -0.887011 0.000000
vn 0.461749 -0.887011 0.000000
vn 0.537300 -0.843391 0.000000
vn 0.537300 -0.843391 0.000000
vn 0.608761 -0.793353 0.000000
vn 0.608761 -0.793353 0.000000
vn 0.675590 -0.737277 0.000000
vn 0.675590 -0.737277 0.000000
vn 0.737277 -0.675590 0.000000
vn 0.737277 -0.675590 0.000000
vn 0.793353 -0.608761 0.000000
vn 0.793353 -0.608761 0.000000
vn 0.843391 -0.537300 0.000000
vn 0.843391 -0.537300 0.000000
vn 0.887011 -0.461749 0.000000
vn 0.887011 -0.461749 0.000000
vn 0.923880 -0.382683 0.000000
vn 0.923880 -0.382683 0.000000
vn 0.953717 -0.300706 0.000000
vn 0.953717 -0.300706 0.000000
vn 0.976296 -0.216439 0.000000
vn 0.976296 -0.216439 0.000000
vn 0.991445 -0.130527 0.000000
vn 0.991445 -0.130527 0.000000
vn 0.999048 -0.043619 0.000000
vn 0.999048 -0.043619 0.000000
vn 0.000000 0.000000 1.000000
vn 0.000000 0.000000 1.000000
vn 0.000000 0.000000 1.000000
vn 0.000000 0.000000 1.000000
vn 0.000000 0.000000 1.000000
vn 0.000000 0.000000 1.000000
vn 0.000000 0.000000 1.000000
vn 0.000000 0.000000 1.000000
vn 0.000000 0.000000 1.000000
vn 0.000000 0.000000 1.000000
vn 0.000000 0.000000 1.000000
vn 0.000000 0.000000 1.000000
vn 0.000000 0.000000 1.000000
vn 0.000000 0.000000 1.000000
vn 0.000000 0.000000 1.000000
vn 0.000000 0.000000 1.000000
vn 0.000000 0.000000 1.000000
vn 0.000000 0.000000 1.000000
vn 0.000000 0.000000 1.000000
vn 0.000000 0.000000 1.000000
vn 0.000000 0.000000 1.000000
vn 0.000000 0.000000 1.000000
vn 0.000000 0.000000 1.000000
vn 0.000000 0.000000 1.000000
vn 0.000000 0.000000 1.000000
vn 0.000000 0.000000 1.000000
vn 0.000000 0.000000 1.000000
vn 0.000000 0.000000 1.000000
vn 0.000000 0.000000 1.000000
vn 0.000000 0.000000 1.000000
vn 0.000000 0.000000 1.000000
vn 0.000000 0.000000 1.000000
vn 0.000000 0.000000 1.000000
vn 0.000000 0.000000 1.000000
vn 0.000000 0.000000 1.000000
vn 0.000000 0.000000 1.000000
vn 0.000000 0.000000 1.000000
vn 0.000000 0.000000 1.000000
vn 0.000000 0.000000 1.000000
vn 0.000000 0.000000 1.000000
vn 0.000000 0.000000 1.000000
vn 0.000000 0.000000 1.000000
vn 0.000000 0.000000 1.000000
vn 0.000000 0.000000 1.000000
vn 0.000000 0.000000 1.000000
vn 0.000000 0.000000 1.000000
vn 0.000000 0.000000 1.000000
vn 0.000000 0.000000 1.000000
vn 0.000000 0.000000 1.000000
vn 0.000000 0.000000 1.000000
vn 0.000000 0.000000 1.000000
vn 0.000000 0.000000 1.000000
vn 0.000000 0.000000 1.000000
vn 0.000000 0.000000 1.000000
vn 0.000000 0.000000 1.000000
vn 0.000000 0.000000 1.000000
vn 0.000000 0.000000 1.000000
vn 0.000000 0.000000 1.000000
vn 0.000000 0.000000 1.000000
vn 0.000000 0.000000 1.000000
vn 0.000000 0.000000 1.000000
vn 0.000000 0.000000 1.000000
vn 0.000000 0.000000 1.000000
vn 0.000000 0.000000 1.000000
vn 0.000000 0.000000 1.000000
vn 0.000000 0.000000 1.000000
vn 0.000000 0.000000 1.000000
vn 0.000000 0.000000 1.000000
vn 0.000000 0.000000 1.000000
vn 0.000000 0.000000 1.000000
vn 0.000000 0.000000 -1.000000
vn 0.000000 0.000000 -1.000000
vn 0.000000 0.000000 -1.000000
vn 0.000000 0.000000 -1.000000
vn 0.000000 0.000000 -1.000000
vn 0.000000 0.000000 -1.000000
vn 0.000000 0.000000 -1.000000
vn 0.000000 0.000000 -1.000000
vn 0.000000 0.000000 -1.000000
vn 0.000000 0.000000 -1.000000
vn 0.000000 0.000000 -1.000000
vn 0.000000 0.000000 -1.000000
vn 0.000000 0.000000 -1.000000
vn 0.000000 0.000000 -1.000000
vn 0.000000 0.000000 -1.000000
vn 0.000000 0.000000 -1.000000
vn 0.000000 0.000000 -1.000000
vn 0.000000 0.000000 -1.000000
vn 0.000000 0.000000 -1.000000
vn 0.000000 -0.000000 -1.000000
vn 0.000000 0.000000 -1.000000
vn 0.000000 0.000000 -1.000000
vn 0.000000 0.000000 -1.000000
vn 0.000000 0.000000 -1.000000
vn 0.000000 0.000000 -1.000000
vn 0.000000 -0.000000 -1.000000
vn 0.000000 -0.000000 -1.000000
vn 0.000000 0.000000 -1.000000
vn 0.000000 -0.000000 -1.000000
vn 0.000000 0.000000 -1.000000
vn 0.000000 -0.000000 -1.000000
vn 0.000000 0.000000 -1.000000
vn 0.000000 0.000000 -1.000000
vn 0.000000 0.000000 -1.000000
vn 0.000000 0.000000 -1.000000
vn 0.000000 -0.000000 -1.000000
vn 0.000000 -0.000000 -1.000000
vn 0.000000 -0.000000 -1.000000
vn 0.000000 -0.000000 -1.000000
vn 0.000000 0.000000 -1.000000
vn 0.000000 -0.000000 -1.000000
vn 0.000000 0.000000 -1.000000
vn 0.000000 -0.000000 -1.000000
vn 0.000000 0.000000 -1.000000
vn 0.000000 -0.000000 -1.000000
vn 0.000000 0.000000 -1.000000
vn 0.000000 0.000000 -1.000000
vn 0.000000 0.000000 -1.000000
vn 0.000000 0.000000 -1.000000
vn 0.000000 0.000000 -1.000000
vn 0.000000 0.000000 -1.000000
vn 0.000000 -0.000000 -1.000000
vn 0.000000 0.000000 -1.000000
vn 0.000000 0.000000 -1.000000
vn 0.000000 0.000000 -1.000000
vn 0.000000 0.000000 -1.000000
vn -0.000000 -0.000000 -1.000000
vn -0.000000 -0.000000 -1.000000
vn -0.000000 -0.000000 -1.000000
vn 0.000000 0.000000 -1.000000
vn -0.000000 -0.000000 -1.000000
vn 0.000000 0.000000 -1.000000
vn 0.000000 0.000000 -1.000000
vn 0.000000 0.000000 -1.000000
vn -0.000000 -0.000000 -1.000000
vn 0.000000 0.000000 -1.000000
vn 0.000000 0.000000 -1.000000
vn -0.000000 -0.000000 -1.000000
vn 0.000000 0.000000 -1.000000
vn 0.000000 0.000000 -1.000000
f 1//1 2//1 3//1
f 1//2 3//2 4//2
f 5//3 1//3 4//3
f 5//4 4//4 6//4
f 7//5 5//5 6//5
f 7//6 6//6 8//6
f 9//7 7//7 8//7
f 9//8 8//8 10//8
f 11//9 9//9 10//9
f 11//10 10//10 12//10
f 11//11 12//11 13//11
f 14//12 11//12 13//12
f 15//13 14//13 13//13
f 15//14 13//14 16//14
f 15//15 16//15 17//15
f 18//16 15//16 17//16
f 19//17 17//17 20//17
f 19//18 18//18 17//18
f 21//19 20//19 22//19
f 21//20 22//20 23//20
f 21//21 19//21 20//21
f 24//22 21//22 23//22
f 25//23 23//23 26//23
f 25//24 24//24 23//24
f 27//25 26//25 28//25
f 27//26 25//26 26//26
f 29//27 27//27 28//27
f 29//28 28//28 30//28
f 29//29 30//29 31//29
f 32//30 29//30 31//30
f 33//31 32//31 31//31
f 33//32 31//32 34//32
f 35//33 33//33 34//33
f 35//34 34//34 36//34
f 37//35 35//35 36//35
f 37//36 36//36 38//36
f 39//37 37//37 38//37
f 39//38 38//38 40//38
f 39//39 40//39 41//39
f 42//40 39//40 41//40
f 43//41 42//41 41//41
f 43//42 41//42 44//42
f 45//43 43//43 44//43
f 45//44 44//44 46//44
f 45//45 46//45 47//45
f 48//46 45//46 47//46
f 49//47 48//47 47//47
f 49//48 47//48 50//48
f 51//49 49//49 50//49
f 51//50 50//50 52//50
f 51//51 52//51 53//51
f 54//52 51//52 53//52
f 55//53 56//53 57//53
f 55//54 54//54 53//54
f 55//55 53//55 56//55
f 58//56 55//56 57//56
f 59//57 57//57 60//57
f 59//58 58//58 57//58
f 61//59 60//59 62//59
f 61//60 59//60 60//60
f 63//61 62//61 64//61
f 63//62 61//62 62//62
f 65//63 64//63 66//63
f 65//64 63//64 64//64
f 67//65 66//65 68//65
f 67//66 65//66 66//66
f 69//67 68//67 70//67
f 69//68 67//68 68//68
f 71//69 70//69 72//69
f 71//70 72//70 73//70
f 71//71 69//71 70//71
f 74//72 71//72 73//72
f 75//73 73//73 76//73
f 75//74 74//74 73//74
f 77//75 75//75 76//75
f 77//76 76//76 78//76
f 79//77 77//77 78//77
f 79//78 78//78 80//78
f 81//79 79//79 80//79
f 81//80 80//80 82//80
f 83//81 82//81 84//81
f 83//82 81//82 82//82
f 85//83 84//83 86//83
f 85//84 83//84 84//84
f 87//85 86//85 88//85
f 87//86 88//86 89//86
f 87//87 85//87 86//87
f 90//88 87//88 89//88
f 91//89 89//89 92//89
f 91//90 90//90 89//90
f 93//91 92//91 94//91
f 93//92 91//92 92//92
f 95//93 94//93 96//93
f 95//94 96//94 97//94
f 95//95 93//95 94//95
f 98//96 95//96 97//96
f 99//97 97//97 100//97
f 99//98 98//98 97//98
f 101//99 100//99 102//99
f 101//100 99//100 100//100
f 103//101 102//101 104//101
f 103//102 101//102 102//102
f 105//103 104//103 106//103
f 105//104 103//104 104//104
f 107//105 106//105 108//105
f 107//106 108//106 109//106
f 107//107 105//107 106//107
f 110//108 107//108 109//108
f 111//109 109//109 112//109
f 111//110 110//110 109//110
f 113//111 112//111 114//111
f 113//112 111//112 112//112
f 115//113 114//113 116//113
f 115//114 113//114 114//114
f 117//115 116//115 118//115
f 117//116 115//116 116//116
f 119//117 118//117 120//117
f 119//118 117//118 118//118
f 121//119 120//119 122//119
f 121//120 119//120 120//120
f 123//121 122//121 124//121
f 123//122 121//122 122//122
f 125//123 124//123 126//123
f 125//124 123//124 124//124
f 127//125 126//125 128//125
f 127//126 125//126 126//126
f 129//127 127//127 128//127
f 129//128 128//128 130//128
f 131//129 129//129 130//129
f 131//130 130//130 132//130
f 131//131 132//131 133//131
f 134//132 131//132 133//132
f 135//133 134//133 133//133
f 135//134 133//134 136//134
f 137//135 135//135 136//135
f 137//136 136//136 138//136
f 137//137 138//137 139//137
f 140//138 137//138 139//138
f 141//139 140//139 139//139
f 141//140 139//140 142//140
f 143//141 141//141 142//141
f 143//142 142//142 144//142
f 2//143 143//143 144//143
f 2//144 144//144 3//144
f 85//145 87//145 90//145
f 99//146 91//146 93//146
f 99//147 93//147 95//147
f 99//148 95//148 98//148
f 101//149 90//149 91//149
f 101//150 91//150 99//150
f 77//151 79//151 81//151
f 77//152 81//152 83//152
f 77//153 83//153 85//153
f 110//154 101//154 103//154
f 110//155 103//155 105//155
f 110//156 105//156 107//156
f 74//157 75//157 77//157
f 71//158 74//158 77//158
f 69//159 71//159 77//159
f 69//160 85//160 90//160
f 69//161 77//161 85//161
f 69//162 90//162 101//162
f 115//163 111//163 113//163
f 65//164 67//164 69//164
f 119//165 101//165 110//165
f 119//166 69//166 101//166
f 119//167 111//167 115//167
f 119//168 110//168 111//168
f 119//169 115//169 117//169
f 63//170 65//170 69//170
f 61//171 63//171 69//171
f 123//172 69//172 119//172
f 123//173 61//173 69//173
f 123//174 119//174 121//174
f 58//175 59//175 61//175
f 58//176 61//176 123//176
f 127//177 123//177 125//177
f 131//178 123//178 127//178
f 131//179 127//179 129//179
f 51//180 54//180 55//180
f 51//181 55//181 58//181
f 49//182 51//182 58//182
f 48//183 49//183 58//183
f 137//184 134//184 135//184
f 43//185 45//185 48//185
f 43//186 58//186 123//186
f 43//187 48//187 58//187
f 141//188 137//188 140//188
f 39//189 42//189 43//189
f 39//190 123//190 131//190
f 39//191 43//191 123//191
f 39//192 137//192 141//192
f 39//193 131//193 134//193
f 39//194 134//194 137//194
f 2//195 141//195 143//195
f 35//196 37//196 39//196
f 35//197 39//197 141//197
f 5//198 2//198 1//198
f 5//199 141//199 2//199
f 7//200 141//200 5//200
f 32//201 33//201 35//201
f 25//202 27//202 29//202
f 25//203 29//203 32//203
f 25//204 35//204 141//204
f 25//205 32//205 35//205
f 14//206 9//206 11//206
f 15//207 9//207 14//207
f 15//208 7//208 9//208
f 21//209 24//209 25//209
f 19//210 25//210 141//210
f 19//211 15//211 18//211
f 19//212 21//212 25//212
f 19//213 7//213 15//213
f 19//214 141//214 7//214
f 88//215 86//215 89//215
f 92//216 100//216 94//216
f 94//217 100//217 96//217
f 96//218 100//218 97//218
f 89//219 102//219 92//219
f 92//220 102//220 100//220
f 80//221 78//221 82//221
f 82//222 78//222 84//222
f 84//223 78//223 86//223
f 102//224 109//224 104//224
f 104//225 109//225 106//225
f 106//226 109//226 108//226
f 76//227 73//227 78//227
f 73//228 72//228 78//228
f 72//229 70//229 78//229
f 86//230 70//230 89//230
f 78//231 70//231 86//231
f 89//232 70//232 102//232
f 112//233 116//233 114//233
f 68//234 66//234 70//234
f 102//235 120//235 109//235
f 70//236 120//236 102//236
f 112//237 120//237 116//237
f 109//238 120//238 112//238
f 116//239 120//239 118//239
f 66//240 64//240 70//240
f 64//241 62//241 70//241
f 70//242 124//242 120//242
f 62//243 124//243 70//243
f 120//244 124//244 122//244
f 60//245 57//245 62//245
f 62//246 57//246 124//246
f 124//247 128//247 126//247
f 124//248 132//248 128//248
f 128//249 132//249 130//249
f 53//250 52//250 56//250
f 56//251 52//251 57//251
f 52//252 50//252 57//252
f 50//253 47//253 57//253
f 133//254 138//254 136//254
f 46//255 44//255 47//255
f 57//256 44//256 124//256
f 47//257 44//257 57//257
f 138//258 142//258 139//258
f 41//259 40//259 44//259
f 124//260 40//260 132//260
f 44//261 40//261 124//261
f 138//262 40//262 142//262
f 132//263 40//263 133//263
f 133//264 40//264 138//264
f 142//265 3//265 144//265
f 38//266 36//266 40//266
f 40//267 36//267 142//267
f 3//268 6//268 4//268
f 142//269 6//269 3//269
f 142//270 8//270 6//270
f 34//271 31//271 36//271
f 28//272 26//272 30//272
f 30//273 26//273 31//273
f 36//274 26//274 142//274
f 31//275 26//275 36//275
f 10//276 13//276 12//276
f 10//277 16//277 13//277
f 8//278 16//278 10//278
f 23//279 22//279 26//279
f 26//280 20//280 142//280
f 16//281 20//281 17//281
f 22//282 20//282 26//282
f 8//283 20//283 16//283
f 142//284 20//284 8//284
