####
#
# OBJ File Generated by Meshlab
#
####
# Object down.obj
#
# Vertices: 120
# Faces: 236
#
####
vn 3.120100 0.327936 3.036874
v 9.945219 1.045285 202.000000 0.752941 0.752941 0.752941
vn 3.137287 0.000000 3.036876
v 10.000000 0.000000 202.000000 0.752941 0.752941 0.752941
vn 3.137287 0.000000 -3.036876
v 10.000000 0.000000 200.000000 0.752941 0.752941 0.752941
vn 3.120101 0.327936 -3.036874
v 9.945219 1.045285 200.000000 0.752941 0.752941 0.752941
vn 3.068730 0.652279 3.036873
v 9.781476 2.079117 202.000000 0.752941 0.752941 0.752941
vn 3.068730 0.652279 -3.036873
v 9.781476 2.079117 200.000000 0.752941 0.752941 0.752941
vn 2.983737 0.969475 3.036874
v 9.510565 3.090170 202.000000 0.752941 0.752941 0.752941
vn 2.983737 0.969475 -3.036874
v 9.510565 3.090170 200.000000 0.752941 0.752941 0.752941
vn 2.866054 1.276050 3.036873
v 9.135454 4.067367 202.000000 0.752941 0.752941 0.752941
vn 2.866054 1.276050 -3.036873
v 9.135454 4.067367 200.000000 0.752941 0.752941 0.752941
vn 2.716970 1.568644 -3.036874
v 8.660254 5.000000 200.000000 0.752941 0.752941 0.752941
vn 2.716970 1.568644 3.036874
v 8.660254 5.000000 202.000000 0.752941 0.752941 0.752941
vn 2.538119 1.844051 3.036873
v 8.090170 5.877852 202.000000 0.752941 0.752941 0.752941
vn 2.538119 1.844051 -3.036873
v 8.090170 5.877852 200.000000 0.752941 0.752941 0.752941
vn 2.331459 2.099255 3.036874
v 7.431448 6.691306 202.000000 0.752941 0.752941 0.752941
vn 2.331459 2.099255 -3.036874
v 7.431448 6.691306 200.000000 0.752941 0.752941 0.752941
vn 2.099255 2.331459 3.036872
v 6.691306 7.431448 202.000000 0.752941 0.752941 0.752941
vn 2.099255 2.331459 -3.036872
v 6.691306 7.431448 200.000000 0.752941 0.752941 0.752941
vn 1.844051 2.538119 3.036871
v 5.877852 8.090170 202.000000 0.752941 0.752941 0.752941
vn 1.844051 2.538119 -3.036871
v 5.877852 8.090170 200.000000 0.752941 0.752941 0.752941
vn 1.568644 2.716970 3.036874
v 5.000000 8.660254 202.000000 0.752941 0.752941 0.752941
vn 1.568644 2.716970 -3.036874
v 5.000000 8.660254 200.000000 0.752941 0.752941 0.752941
vn 1.276050 2.866054 3.036873
v 4.067367 9.135454 202.000000 0.752941 0.752941 0.752941
vn 1.276050 2.866054 -3.036873
v 4.067367 9.135454 200.000000 0.752941 0.752941 0.752941
vn 0.969475 2.983737 3.036876
v 3.090170 9.510565 202.000000 0.752941 0.752941 0.752941
vn 0.969475 2.983737 -3.036876
v 3.090170 9.510565 200.000000 0.752941 0.752941 0.752941
vn 0.652279 3.068730 3.036872
v 2.079117 9.781476 202.000000 0.752941 0.752941 0.752941
vn 0.652279 3.068730 -3.036872
v 2.079117 9.781476 200.000000 0.752941 0.752941 0.752941
vn 0.327936 3.120101 3.036873
v 1.045285 9.945219 202.000000 0.752941 0.752941 0.752941
vn 0.327936 3.120101 -3.036873
v 1.045285 9.945219 200.000000 0.752941 0.752941 0.752941
vn 0.000000 3.137287 3.036874
v 0.000000 10.000000 202.000000 0.752941 0.752941 0.752941
vn 0.000000 3.137287 -3.036874
v 0.000000 10.000000 200.000000 0.752941 0.752941 0.752941
vn -0.327936 3.120100 3.036876
v -1.045285 9.945219 202.000000 0.752941 0.752941 0.752941
vn -0.327936 3.120101 -3.036876
v -1.045285 9.945219 200.000000 0.752941 0.752941 0.752941
vn -0.652279 3.068730 3.036872
v -2.079117 9.781476 202.000000 0.752941 0.752941 0.752941
vn -0.652279 3.068729 -3.036872
v -2.079117 9.781476 200.000000 0.752941 0.752941 0.752941
vn -0.969475 2.983737 3.036874
v -3.090170 9.510565 202.000000 0.752941 0.752941 0.752941
vn -0.969475 2.983737 -3.036874
v -3.090170 9.510565 200.000000 0.752941 0.752941 0.752941
vn -1.276050 2.866054 3.036875
v -4.067367 9.135454 202.000000 0.752941 0.752941 0.752941
vn -1.276050 2.866054 -3.036875
v -4.067367 9.135454 200.000000 0.752941 0.752941 0.752941
vn -1.568644 2.716970 3.036875
v -5.000000 8.660254 202.000000 0.752941 0.752941 0.752941
vn -1.568644 2.716970 -3.036875
v -5.000000 8.660254 200.000000 0.752941 0.752941 0.752941
vn -1.844051 2.538119 3.036875
v -5.877852 8.090170 202.000000 0.752941 0.752941 0.752941
vn -1.844051 2.538119 -3.036875
v -5.877852 8.090170 200.000000 0.752941 0.752941 0.752941
vn -2.099255 2.331459 3.036872
v -6.691306 7.431448 202.000000 0.752941 0.752941 0.752941
vn -2.099255 2.331459 -3.036872
v -6.691306 7.431448 200.000000 0.752941 0.752941 0.752941
vn -2.331459 2.099255 -3.036871
v -7.431448 6.691306 200.000000 0.752941 0.752941 0.752941
vn -2.331459 2.099255 3.036871
v -7.431448 6.691306 202.000000 0.752941 0.752941 0.752941
vn -2.538119 1.844051 3.036872
v -8.090170 5.877852 202.000000 0.752941 0.752941 0.752941
vn -2.538119 1.844051 -3.036872
v -8.090170 5.877852 200.000000 0.752941 0.752941 0.752941
vn -2.716970 1.568644 3.036874
v -8.660254 5.000000 202.000000 0.752941 0.752941 0.752941
vn -2.716970 1.568644 -3.036874
v -8.660254 5.000000 200.000000 0.752941 0.752941 0.752941
vn -2.866054 1.276050 -3.036873
v -9.135454 4.067367 200.000000 0.752941 0.752941 0.752941
vn -2.866054 1.276050 3.036873
v -9.135454 4.067367 202.000000 0.752941 0.752941 0.752941
vn -2.983737 0.969475 3.036872
v -9.510565 3.090170 202.000000 0.752941 0.752941 0.752941
vn -2.983737 0.969475 -3.036872
v -9.510565 3.090170 200.000000 0.752941 0.752941 0.752941
vn -3.068730 0.652279 3.036873
v -9.781476 2.079117 202.000000 0.752941 0.752941 0.752941
vn -3.068730 0.652279 -3.036873
v -9.781476 2.079117 200.000000 0.752941 0.752941 0.752941
vn -3.120100 0.327936 3.036871
v -9.945219 1.045285 202.000000 0.752941 0.752941 0.752941
vn -3.120101 0.327936 -3.036871
v -9.945219 1.045285 200.000000 0.752941 0.752941 0.752941
vn -3.137287 0.000000 -3.036876
v -10.000000 0.000000 200.000000 0.752941 0.752941 0.752941
vn -3.137287 0.000000 3.036876
v -10.000000 0.000000 202.000000 0.752941 0.752941 0.752941
vn -3.120100 -0.327936 3.036871
v -9.945219 -1.045285 202.000000 0.752941 0.752941 0.752941
vn -3.120101 -0.327936 -3.036871
v -9.945219 -1.045285 200.000000 0.752941 0.752941 0.752941
vn -3.068730 -0.652279 3.036873
v -9.781476 -2.079117 202.000000 0.752941 0.752941 0.752941
vn -3.068730 -0.652279 -3.036873
v -9.781476 -2.079117 200.000000 0.752941 0.752941 0.752941
vn -2.983737 -0.969475 -3.036874
v -9.510565 -3.090170 200.000000 0.752941 0.752941 0.752941
vn -2.983737 -0.969475 3.036874
v -9.510565 -3.090170 202.000000 0.752941 0.752941 0.752941
vn -2.866054 -1.276050 3.036872
v -9.135454 -4.067367 202.000000 0.752941 0.752941 0.752941
vn -2.866054 -1.276050 -3.036872
v -9.135454 -4.067367 200.000000 0.752941 0.752941 0.752941
vn -2.716970 -1.568644 3.036873
v -8.660254 -5.000000 202.000000 0.752941 0.752941 0.752941
vn -2.716970 -1.568644 -3.036873
v -8.660254 -5.000000 200.000000 0.752941 0.752941 0.752941
vn -2.538119 -1.844051 3.036873
v -8.090170 -5.877852 202.000000 0.752941 0.752941 0.752941
vn -2.538119 -1.844051 -3.036873
v -8.090170 -5.877852 200.000000 0.752941 0.752941 0.752941
vn -2.331459 -2.099255 3.036874
v -7.431448 -6.691306 202.000000 0.752941 0.752941 0.752941
vn -2.331459 -2.099255 -3.036874
v -7.431448 -6.691306 200.000000 0.752941 0.752941 0.752941
vn -2.099255 -2.331459 -3.036872
v -6.691306 -7.431448 200.000000 0.752941 0.752941 0.752941
vn -2.099255 -2.331459 3.036872
v -6.691306 -7.431448 202.000000 0.752941 0.752941 0.752941
vn -1.844051 -2.538119 3.036873
v -5.877852 -8.090170 202.000000 0.752941 0.752941 0.752941
vn -1.844051 -2.538119 -3.036873
v -5.877852 -8.090170 200.000000 0.752941 0.752941 0.752941
vn -1.568644 -2.716970 3.036873
v -5.000000 -8.660254 202.000000 0.752941 0.752941 0.752941
vn -1.568644 -2.716970 -3.036873
v -5.000000 -8.660254 200.000000 0.752941 0.752941 0.752941
vn -1.276050 -2.866054 -3.036874
v -4.067367 -9.135454 200.000000 0.752941 0.752941 0.752941
vn -1.276050 -2.866054 3.036874
v -4.067367 -9.135454 202.000000 0.752941 0.752941 0.752941
vn -0.969475 -2.983737 3.036873
v -3.090170 -9.510565 202.000000 0.752941 0.752941 0.752941
vn -0.969475 -2.983737 -3.036873
v -3.090170 -9.510565 200.000000 0.752941 0.752941 0.752941
vn -0.652279 -3.068730 3.036875
v -2.079117 -9.781476 202.000000 0.752941 0.752941 0.752941
vn -0.652279 -3.068730 -3.036875
v -2.079117 -9.781476 200.000000 0.752941 0.752941 0.752941
vn -0.327936 -3.120101 3.036873
v -1.045285 -9.945219 202.000000 0.752941 0.752941 0.752941
vn -0.327936 -3.120101 -3.036873
v -1.045285 -9.945219 200.000000 0.752941 0.752941 0.752941
vn 0.000000 -3.137287 3.036874
v 0.000000 -10.000000 202.000000 0.752941 0.752941 0.752941
vn -0.000000 -3.137287 -3.036874
v 0.000000 -10.000000 200.000000 0.752941 0.752941 0.752941
vn 0.327936 -3.120100 3.036873
v 1.045285 -9.945219 202.000000 0.752941 0.752941 0.752941
vn 0.327936 -3.120101 -3.036873
v 1.045285 -9.945219 200.000000 0.752941 0.752941 0.752941
vn 0.652279 -3.068730 3.036872
v 2.079117 -9.781476 202.000000 0.752941 0.752941 0.752941
vn 0.652279 -3.068730 -3.036872
v 2.079117 -9.781476 200.000000 0.752941 0.752941 0.752941
vn 0.969475 -2.983737 -3.036876
v 3.090170 -9.510565 200.000000 0.752941 0.752941 0.752941
vn 0.969475 -2.983737 3.036876
v 3.090170 -9.510565 202.000000 0.752941 0.752941 0.752941
vn 1.276050 -2.866054 3.036874
v 4.067367 -9.135454 202.000000 0.752941 0.752941 0.752941
vn 1.276050 -2.866054 -3.036874
v 4.067367 -9.135454 200.000000 0.752941 0.752941 0.752941
vn 1.568644 -2.716970 -3.036874
v 5.000000 -8.660254 200.000000 0.752941 0.752941 0.752941
vn 1.568644 -2.716970 3.036874
v 5.000000 -8.660254 202.000000 0.752941 0.752941 0.752941
vn 1.844051 -2.538119 3.036873
v 5.877852 -8.090170 202.000000 0.752941 0.752941 0.752941
vn 1.844051 -2.538119 -3.036873
v 5.877852 -8.090170 200.000000 0.752941 0.752941 0.752941
vn 2.099255 -2.331459 3.036870
v 6.691306 -7.431448 202.000000 0.752941 0.752941 0.752941
vn 2.099255 -2.331459 -3.036870
v 6.691306 -7.431448 200.000000 0.752941 0.752941 0.752941
vn 2.331459 -2.099255 3.036873
v 7.431448 -6.691306 202.000000 0.752941 0.752941 0.752941
vn 2.331459 -2.099255 -3.036873
v 7.431448 -6.691306 200.000000 0.752941 0.752941 0.752941
vn 2.538119 -1.844051 3.036875
v 8.090170 -5.877852 202.000000 0.752941 0.752941 0.752941
vn 2.538119 -1.844051 -3.036875
v 8.090170 -5.877852 200.000000 0.752941 0.752941 0.752941
vn 2.716970 -1.568644 3.036872
v 8.660254 -5.000000 202.000000 0.752941 0.752941 0.752941
vn 2.716970 -1.568644 -3.036872
v 8.660254 -5.000000 200.000000 0.752941 0.752941 0.752941
vn 2.866054 -1.276050 3.036872
v 9.135454 -4.067367 202.000000 0.752941 0.752941 0.752941
vn 2.866054 -1.276050 -3.036872
v 9.135454 -4.067367 200.000000 0.752941 0.752941 0.752941
vn 2.983737 -0.969475 -3.036873
v 9.510565 -3.090170 200.000000 0.752941 0.752941 0.752941
vn 2.983737 -0.969475 3.036873
v 9.510565 -3.090170 202.000000 0.752941 0.752941 0.752941
vn 3.068730 -0.652279 3.036873
v 9.781476 -2.079117 202.000000 0.752941 0.752941 0.752941
vn 3.068730 -0.652279 -3.036873
v 9.781476 -2.079117 200.000000 0.752941 0.752941 0.752941
vn 3.120101 -0.327936 3.036871
v 9.945219 -1.045285 202.000000 0.752941 0.752941 0.752941
vn 3.120101 -0.327936 -3.036871
v 9.945219 -1.045285 200.000000 0.752941 0.752941 0.752941
# 120 vertices, 0 vertices normals

f 1//1 2//2 3//3
f 1//1 3//3 4//4
f 5//5 1//1 4//4
f 5//5 4//4 6//6
f 7//7 5//5 6//6
f 7//7 6//6 8//8
f 9//9 7//7 8//8
f 9//9 8//8 10//10
f 9//9 10//10 11//11
f 12//12 9//9 11//11
f 13//13 12//12 11//11
f 13//13 11//11 14//14
f 15//15 13//13 14//14
f 15//15 14//14 16//16
f 17//17 15//15 16//16
f 17//17 16//16 18//18
f 19//19 17//17 18//18
f 19//19 18//18 20//20
f 21//21 19//19 20//20
f 21//21 20//20 22//22
f 23//23 21//21 22//22
f 23//23 22//22 24//24
f 25//25 24//24 26//26
f 25//25 23//23 24//24
f 27//27 26//26 28//28
f 27//27 25//25 26//26
f 29//29 28//28 30//30
f 29//29 27//27 28//28
f 31//31 30//30 32//32
f 31//31 29//29 30//30
f 33//33 32//32 34//34
f 33//33 31//31 32//32
f 35//35 34//34 36//36
f 35//35 33//33 34//34
f 37//37 36//36 38//38
f 37//37 35//35 36//36
f 39//39 38//38 40//40
f 39//39 37//37 38//38
f 41//41 39//39 40//40
f 41//41 40//40 42//42
f 43//43 41//41 42//42
f 43//43 42//42 44//44
f 45//45 43//43 44//44
f 45//45 44//44 46//46
f 45//45 46//46 47//47
f 48//48 45//45 47//47
f 49//49 48//48 47//47
f 49//49 47//47 50//50
f 51//51 49//49 50//50
f 51//51 50//50 52//52
f 51//51 52//52 53//53
f 54//54 51//51 53//53
f 55//55 54//54 53//53
f 55//55 53//53 56//56
f 57//57 55//55 56//56
f 57//57 56//56 58//58
f 59//59 57//57 58//58
f 59//59 58//58 60//60
f 59//59 60//60 61//61
f 62//62 59//59 61//61
f 63//63 62//62 61//61
f 63//63 61//61 64//64
f 65//65 63//63 64//64
f 65//65 64//64 66//66
f 65//65 66//66 67//67
f 68//68 65//65 67//67
f 69//69 68//68 67//67
f 69//69 67//67 70//70
f 71//71 69//69 70//70
f 71//71 70//70 72//72
f 73//73 71//71 72//72
f 73//73 72//72 74//74
f 75//75 73//73 74//74
f 75//75 74//74 76//76
f 75//75 76//76 77//77
f 78//78 75//75 77//77
f 79//79 78//78 77//77
f 79//79 77//77 80//80
f 81//81 80//80 82//82
f 81//81 82//82 83//83
f 81//81 79//79 80//80
f 84//84 81//81 83//83
f 85//85 83//83 86//86
f 85//85 84//84 83//83
f 87//87 86//86 88//88
f 87//87 85//85 86//86
f 89//89 88//88 90//90
f 89//89 87//87 88//88
f 91//91 90//90 92//92
f 91//91 89//89 90//90
f 93//93 91//91 92//92
f 93//93 92//92 94//94
f 95//95 94//94 96//96
f 95//95 96//96 97//97
f 95//95 93//93 94//94
f 98//98 95//95 97//97
f 99//99 97//97 100//100
f 99//99 100//100 101//101
f 99//99 98//98 97//97
f 102//102 99//99 101//101
f 103//103 101//101 104//104
f 103//103 102//102 101//101
f 105//105 104//104 106//106
f 105//105 103//103 104//104
f 107//107 106//106 108//108
f 107//107 105//105 106//106
f 109//109 108//108 110//110
f 109//109 107//107 108//108
f 111//111 110//110 112//112
f 111//111 109//109 110//110
f 113//113 112//112 114//114
f 113//113 114//114 115//115
f 113//113 111//111 112//112
f 116//116 113//113 115//115
f 117//117 115//115 118//118
f 117//117 116//116 115//115
f 119//119 118//118 120//120
f 119//119 117//117 118//118
f 2//2 120//120 3//3
f 2//2 119//119 120//120
f 73//73 75//75 78//78
f 87//87 79//79 81//81
f 87//87 81//81 84//84
f 87//87 84//84 85//85
f 62//62 63//63 65//65
f 62//62 65//65 68//68
f 59//59 68//68 69//69
f 59//59 69//69 71//71
f 59//59 71//71 73//73
f 59//59 62//62 68//68
f 98//98 78//78 79//79
f 98//98 87//87 89//89
f 98//98 89//89 91//91
f 98//98 91//91 93//93
f 98//98 93//93 95//95
f 98//98 73//73 78//78
f 98//98 79//79 87//87
f 103//103 99//99 102//102
f 49//49 51//51 54//54
f 49//49 54//54 55//55
f 105//105 73//73 98//98
f 105//105 99//99 103//103
f 105//105 55//55 57//57
f 105//105 57//57 59//59
f 105//105 98//98 99//99
f 105//105 59//59 73//73
f 48//48 49//49 55//55
f 111//111 107//107 109//109
f 41//41 43//43 45//45
f 41//41 45//45 48//48
f 39//39 48//48 55//55
f 39//39 41//41 48//48
f 116//116 107//107 111//111
f 116//116 105//105 107//107
f 116//116 111//111 113//113
f 33//33 35//35 37//37
f 33//33 37//37 39//39
f 2//2 116//116 117//117
f 2//2 117//117 119//119
f 1//1 116//116 2//2
f 25//25 27//27 29//29
f 25//25 29//29 31//31
f 25//25 31//31 33//33
f 23//23 55//55 105//105
f 23//23 39//39 55//55
f 23//23 105//105 116//116
f 23//23 33//33 39//39
f 23//23 25//25 33//33
f 19//19 21//21 23//23
f 13//13 1//1 5//5
f 13//13 5//5 7//7
f 13//13 7//7 9//9
f 13//13 9//9 12//12
f 13//13 116//116 1//1
f 13//13 23//23 116//116
f 13//13 19//19 23//23
f 17//17 13//13 15//15
f 17//17 19//19 13//13
f 76//76 74//74 77//77
f 80//80 88//88 82//82
f 82//82 88//88 83//83
f 83//83 88//88 86//86
f 64//64 61//61 66//66
f 66//66 61//61 67//67
f 67//67 60//60 70//70
f 70//70 60//60 72//72
f 72//72 60//60 74//74
f 61//61 60//60 67//67
f 77//77 97//97 80//80
f 88//88 97//97 90//90
f 90//90 97//97 92//92
f 92//92 97//97 94//94
f 94//94 97//97 96//96
f 74//74 97//97 77//77
f 80//80 97//97 88//88
f 100//100 104//104 101//101
f 52//52 50//50 53//53
f 53//53 50//50 56//56
f 74//74 106//106 97//97
f 100//100 106//106 104//104
f 56//56 106//106 58//58
f 58//58 106//106 60//60
f 97//97 106//106 100//100
f 60//60 106//106 74//74
f 50//50 47//47 56//56
f 108//108 112//112 110//110
f 44//44 42//42 46//46
f 46//46 42//42 47//47
f 47//47 40//40 56//56
f 42//42 40//40 47//47
f 108//108 115//115 112//112
f 106//106 115//115 108//108
f 112//112 115//115 114//114
f 36//36 34//34 38//38
f 38//38 34//34 40//40
f 115//115 3//3 118//118
f 118//118 3//3 120//120
f 115//115 4//4 3//3
f 28//28 26//26 30//30
f 30//30 26//26 32//32
f 32//32 26//26 34//34
f 56//56 24//24 106//106
f 40//40 24//24 56//56
f 106//106 24//24 115//115
f 34//34 24//24 40//40
f 26//26 24//24 34//34
f 22//22 20//20 24//24
f 4//4 14//14 6//6
f 6//6 14//14 8//8
f 8//8 14//14 10//10
f 10//10 14//14 11//11
f 115//115 14//14 4//4
f 24//24 14//14 115//115
f 20//20 14//14 24//24
f 14//14 18//18 16//16
f 20//20 18//18 14//14
# 236 faces, 0 coords texture

# End of File